<svg width="114" height="31" viewBox="0 0 114 31" fill="none" xmlns="http://www.w3.org/2000/svg">
<path d="M6.216 24.312C4.36 24.312 2.92 23.744 1.896 22.608C0.872 21.456 0.36 19.872 0.36 17.856C0.36 15.76 0.904 14.128 1.992 12.96C3.096 11.792 4.6 11.208 6.504 11.208C7.944 11.208 9.488 11.536 11.136 12.192C11.104 12.656 11.032 13.272 10.92 14.04C10.808 14.792 10.688 15.488 10.56 16.128L8.952 16.272L7.464 14.376C7.064 14.296 6.616 14.256 6.12 14.256C5.72 14.256 5.352 14.28 5.016 14.328C4.648 15.032 4.464 16.024 4.464 17.304C4.464 18.616 4.696 19.592 5.16 20.232C5.624 20.856 6.328 21.168 7.272 21.168C7.72 21.168 8.264 21.104 8.904 20.976C9.544 20.832 10.2 20.632 10.872 20.376L11.448 22.776C10.808 23.224 10.008 23.592 9.048 23.88C8.104 24.168 7.16 24.312 6.216 24.312ZM16.4081 24.312C15.3201 24.312 14.4481 24.016 13.7921 23.424C13.1361 22.816 12.8081 22.04 12.8081 21.096C12.8081 19.832 13.4401 18.84 14.7041 18.12C15.9841 17.4 17.8401 16.992 20.2721 16.896C20.2721 16.144 20.2081 15.592 20.0801 15.24C19.9681 14.872 19.7521 14.624 19.4321 14.496C19.1281 14.352 18.6561 14.28 18.0161 14.28C17.3601 14.28 16.8961 14.304 16.6241 14.352L15.6401 16.296L13.8641 16.176C13.5921 14.896 13.4001 13.568 13.2881 12.192C14.1841 11.888 15.1601 11.648 16.2161 11.472C17.2881 11.296 18.2881 11.208 19.2161 11.208C20.9121 11.208 22.1281 11.544 22.8641 12.216C23.6001 12.872 23.9681 13.968 23.9681 15.504V20.52C23.9681 20.808 23.9921 21.008 24.0401 21.12C24.1041 21.232 24.2321 21.344 24.4241 21.456L25.3841 22.008L25.2881 23.496C23.4321 23.928 21.9681 24.168 20.8961 24.216C20.8641 24.12 20.8161 23.952 20.7521 23.712C20.6881 23.456 20.6321 23.216 20.5841 22.992C19.9601 23.392 19.2721 23.712 18.5201 23.952C17.7841 24.192 17.0801 24.312 16.4081 24.312ZM18.0161 21.6C18.6561 21.6 19.4321 21.384 20.3441 20.952L20.2481 19.128C19.8641 19.096 19.6081 19.08 19.4801 19.08C19.0481 19.08 18.5441 19.128 17.9681 19.224C17.3921 19.304 16.9361 19.4 16.6001 19.512C16.5521 19.72 16.5281 19.912 16.5281 20.088C16.5281 20.568 16.6561 20.944 16.9121 21.216C17.1841 21.472 17.5521 21.6 18.0161 21.6ZM26.2652 21.72L27.7292 21.288V15.456C27.7292 15.104 27.7052 14.88 27.6572 14.784C27.6092 14.672 27.4812 14.552 27.2732 14.424L26.2172 13.848L26.2892 12.048C26.5612 11.984 26.7932 11.944 26.9852 11.928C28.9212 11.528 30.3532 11.312 31.2812 11.28C31.4252 11.696 31.5612 12.216 31.6892 12.84C32.6492 12.088 33.4652 11.568 34.1372 11.28H35.5052C35.4892 11.888 35.4492 12.552 35.3852 13.272C35.3212 13.976 35.2412 14.544 35.1452 14.976C34.5692 14.944 34.1452 14.928 33.8732 14.928C33.2012 14.928 32.5052 14.968 31.7852 15.048V20.496C31.7852 20.832 31.8092 21.056 31.8572 21.168C31.9052 21.28 32.0332 21.4 32.2412 21.528L33.6812 22.296L33.5852 24H26.3852L26.2652 21.72ZM42.0519 24.288C40.1799 24.288 38.7319 23.72 37.7079 22.584C36.6999 21.448 36.1959 19.88 36.1959 17.88C36.1959 16.488 36.4439 15.296 36.9399 14.304C37.4359 13.296 38.1399 12.528 39.0519 12C39.9639 11.472 41.0279 11.208 42.2439 11.208C44.0519 11.208 45.4359 11.784 46.3959 12.936C47.3719 14.088 47.8359 15.728 47.7879 17.856L40.4919 19.2C40.7159 19.872 41.0279 20.368 41.4279 20.688C41.8439 20.992 42.3879 21.144 43.0599 21.144C43.5239 21.144 44.0759 21.08 44.7159 20.952C45.3559 20.808 46.0039 20.616 46.6599 20.376L47.2119 22.752C46.6199 23.2 45.8519 23.568 44.9079 23.856C43.9639 24.144 43.0119 24.288 42.0519 24.288ZM43.8519 15.84C43.8199 15.232 43.6439 14.792 43.3239 14.52C43.0199 14.232 42.5879 14.088 42.0279 14.088C41.5639 14.088 41.1239 14.152 40.7079 14.28C40.3719 15.064 40.2199 15.912 40.2519 16.824L43.8519 15.84Z" fill="black"/>
<path d="M53.6796 24.312C52.2716 24.312 51.2316 23.968 50.5596 23.28C49.8876 22.576 49.5516 21.512 49.5516 20.088V14.256H47.8716V12.504L52.1916 8.568L53.5836 8.736V11.448H57.6156V14.28H53.5836V19.224C53.5836 19.992 53.6876 20.504 53.8956 20.76C54.1196 21.016 54.5436 21.144 55.1676 21.144C55.6956 21.144 56.4316 21.072 57.3756 20.928L57.6636 23.376C57.0876 23.648 56.4396 23.872 55.7196 24.048C55.0156 24.224 54.3356 24.312 53.6796 24.312ZM62.4159 24.312C61.3279 24.312 60.4559 24.016 59.7999 23.424C59.1439 22.816 58.8159 22.04 58.8159 21.096C58.8159 19.832 59.4479 18.84 60.7119 18.12C61.9919 17.4 63.8479 16.992 66.2799 16.896C66.2799 16.144 66.2159 15.592 66.0879 15.24C65.9759 14.872 65.7599 14.624 65.4399 14.496C65.1359 14.352 64.6639 14.28 64.0239 14.28C63.3679 14.28 62.9039 14.304 62.6319 14.352L61.6479 16.296L59.8719 16.176C59.5999 14.896 59.4079 13.568 59.2959 12.192C60.1919 11.888 61.1679 11.648 62.2239 11.472C63.2959 11.296 64.2959 11.208 65.2239 11.208C66.9199 11.208 68.1359 11.544 68.8719 12.216C69.6079 12.872 69.9759 13.968 69.9759 15.504V20.52C69.9759 20.808 69.9999 21.008 70.0479 21.12C70.1119 21.232 70.2399 21.344 70.4319 21.456L71.3919 22.008L71.2959 23.496C69.4399 23.928 67.9759 24.168 66.9039 24.216C66.8719 24.12 66.8239 23.952 66.7599 23.712C66.6959 23.456 66.6399 23.216 66.5919 22.992C65.9679 23.392 65.2799 23.712 64.5279 23.952C63.7919 24.192 63.0879 24.312 62.4159 24.312ZM64.0239 21.6C64.6639 21.6 65.4399 21.384 66.3519 20.952L66.2559 19.128C65.8719 19.096 65.6159 19.08 65.4879 19.08C65.0559 19.08 64.5519 19.128 63.9759 19.224C63.3999 19.304 62.9439 19.4 62.6079 19.512C62.5599 19.72 62.5359 19.912 62.5359 20.088C62.5359 20.568 62.6639 20.944 62.9199 21.216C63.1919 21.472 63.5599 21.6 64.0239 21.6ZM72.249 21.72L73.737 21.288V9.792C73.737 9.44 73.713 9.216 73.665 9.12C73.617 9.008 73.489 8.888 73.281 8.76L72.225 8.208L72.297 6.384L73.041 6.264C75.153 5.88 76.633 5.672 77.481 5.64C77.625 6.024 77.729 6.44 77.793 6.888V16.656L80.457 14.064C80.537 13.984 80.577 13.896 80.577 13.8C80.577 13.72 80.553 13.656 80.505 13.608L79.833 12.768L80.097 11.448H85.425C85.569 11.976 85.665 12.544 85.713 13.152L81.729 16.56L86.361 22.944V24H82.137L77.793 17.76V20.496C77.793 20.832 77.817 21.056 77.865 21.168C77.913 21.28 78.041 21.4 78.249 21.528L79.425 22.2L79.329 24H72.369L72.249 21.72ZM92.466 24.288C90.594 24.288 89.146 23.72 88.122 22.584C87.114 21.448 86.61 19.88 86.61 17.88C86.61 16.488 86.858 15.296 87.354 14.304C87.85 13.296 88.554 12.528 89.466 12C90.378 11.472 91.442 11.208 92.658 11.208C94.466 11.208 95.85 11.784 96.81 12.936C97.786 14.088 98.25 15.728 98.202 17.856L90.906 19.2C91.13 19.872 91.442 20.368 91.842 20.688C92.258 20.992 92.802 21.144 93.474 21.144C93.938 21.144 94.49 21.08 95.13 20.952C95.77 20.808 96.418 20.616 97.074 20.376L97.626 22.752C97.034 23.2 96.266 23.568 95.322 23.856C94.378 24.144 93.426 24.288 92.466 24.288ZM94.266 15.84C94.234 15.232 94.058 14.792 93.738 14.52C93.434 14.232 93.002 14.088 92.442 14.088C91.978 14.088 91.538 14.152 91.122 14.28C90.786 15.064 90.634 15.912 90.666 16.824L94.266 15.84ZM99.2964 21.72L100.76 21.288V15.456C100.76 15.104 100.736 14.88 100.688 14.784C100.64 14.672 100.512 14.552 100.304 14.424L99.2484 13.848L99.3204 12.048C99.5924 11.984 99.8244 11.944 100.016 11.928C101.952 11.528 103.384 11.312 104.312 11.28C104.456 11.696 104.592 12.216 104.72 12.84C105.68 12.088 106.496 11.568 107.168 11.28H108.536C108.52 11.888 108.48 12.552 108.416 13.272C108.352 13.976 108.272 14.544 108.176 14.976C107.6 14.944 107.176 14.928 106.904 14.928C106.232 14.928 105.536 14.968 104.816 15.048V20.496C104.816 20.832 104.84 21.056 104.888 21.168C104.936 21.28 105.064 21.4 105.272 21.528L106.712 22.296L106.616 24H99.4164L99.2964 21.72Z" fill="#49AAAF"/>
<circle cx="111.5" cy="21.5" r="2.5" fill="#49AAAF"/>
</svg>
