<svg width="40" height="40" viewBox="0 0 40 40" fill="none" xmlns="http://www.w3.org/2000/svg">
<path fill-rule="evenodd" clip-rule="evenodd" d="M38.5454 25.4702C39.3714 25.5322 39.9894 26.2542 39.9274 27.0802L39.5474 32.0982C39.2334 36.2382 35.7394 39.4802 31.5894 39.4802H8.3894C4.2394 39.4802 0.7454 36.2382 0.4314 32.0982L0.0514 27.0802C-0.0106 26.2542 0.6094 25.5322 1.4354 25.4702C2.2654 25.4402 2.9814 26.0262 3.0454 26.8542L3.4234 31.8702C3.6194 34.4542 5.7994 36.4802 8.3894 36.4802H31.5894C34.1794 36.4802 36.3614 34.4542 36.5554 31.8702L36.9354 26.8542C36.9994 26.0262 37.7334 25.4382 38.5454 25.4702ZM22.5698 0C25.5757 0 28.0659 2.25253 28.441 5.15805L32.38 5.1598C36.572 5.1598 39.98 8.5778 39.98 12.7818V19.6598C39.98 20.1938 39.696 20.6858 39.238 20.9538C34.3014 23.8448 28.0478 25.531 21.4891 25.756L21.4898 29.3532C21.4898 30.1812 20.8178 30.8532 19.9898 30.8532C19.1618 30.8532 18.4898 30.1812 18.4898 29.3532L18.4885 25.7565C11.9364 25.5336 5.68231 23.847 0.742 20.9538C0.282 20.6858 0 20.1938 0 19.6598V12.7618C0 8.5698 3.418 5.1598 7.62 5.1598L11.5386 5.15805C11.9137 2.25253 14.4039 0 17.4098 0H22.5698ZM32.38 8.1598H7.62C5.072 8.1598 3 10.2238 3 12.7618V18.7858C7.74743 21.3653 13.7325 22.7791 19.962 22.7818L19.9898 22.7792L20.012 22.78L20.9643 22.7701C26.8559 22.6297 32.4762 21.2319 36.98 18.7858V12.7818C36.98 10.2318 34.918 8.1598 32.38 8.1598ZM22.5698 3H17.4098C16.0631 3 14.9263 3.91655 14.5905 5.15856H25.3891C25.0533 3.91655 23.9165 3 22.5698 3Z" fill="white"/>
</svg>
