<svg width="39" height="42" viewBox="0 0 39 42" fill="none" xmlns="http://www.w3.org/2000/svg">
<path fill-rule="evenodd" clip-rule="evenodd" d="M20.5346 0C21.9666 0 23.3586 0.588 24.3566 1.61C25.3526 2.638 25.9026 4.048 25.8606 5.478C25.8646 5.8 25.9706 6.172 26.1626 6.498C26.4806 7.038 26.9826 7.418 27.5786 7.574C28.1746 7.722 28.7986 7.642 29.3286 7.328C31.8886 5.866 35.1466 6.742 36.6086 9.282L37.8546 11.44C37.8866 11.498 37.9146 11.554 37.9386 11.612C39.2626 14.114 38.3786 17.264 35.9186 18.702C35.5606 18.908 35.2706 19.196 35.0706 19.544C34.7606 20.082 34.6746 20.722 34.8306 21.31C34.9906 21.91 35.3726 22.408 35.9106 22.716C37.1246 23.414 38.0306 24.59 38.3926 25.948C38.7546 27.304 38.5566 28.776 37.8506 29.99L36.5226 32.202C35.0606 34.714 31.8026 35.584 29.2686 34.12C28.9306 33.926 28.5406 33.82 28.1526 33.81H28.1406C27.5626 33.81 26.9686 34.056 26.5366 34.486C26.0986 34.924 25.8586 35.508 25.8626 36.128C25.8486 39.066 23.4586 41.442 20.5346 41.442H18.0286C15.0906 41.442 12.7006 39.054 12.7006 36.116C12.6966 35.754 12.5926 35.378 12.3986 35.052C12.0846 34.504 11.5766 34.112 10.9906 33.956C10.4086 33.8 9.77064 33.886 9.24664 34.19C7.99064 34.89 6.51264 35.06 5.16064 34.68C3.81064 34.298 2.64464 33.37 1.96064 32.14L0.71064 29.986C-0.75136 27.45 0.118639 24.2 2.65064 22.736C3.36864 22.322 3.81464 21.55 3.81464 20.722C3.81464 19.894 3.36864 19.12 2.65064 18.706C0.11664 17.234 -0.75136 13.976 0.70864 11.44L2.06464 9.214C3.50664 6.706 6.76664 5.822 9.30864 7.282C9.65464 7.488 10.0306 7.592 10.4126 7.596C11.6586 7.596 12.7006 6.568 12.7206 5.304C12.7126 3.91 13.2626 2.572 14.2646 1.562C15.2706 0.554 16.6066 0 18.0286 0H20.5346ZM20.5346 3H18.0286C17.4086 3 16.8286 3.242 16.3906 3.678C15.9546 4.116 15.7166 4.698 15.7206 5.318C15.6786 8.242 13.2886 10.596 10.3946 10.596C9.46664 10.586 8.57264 10.336 7.79664 9.872C6.70664 9.252 5.28264 9.634 4.64464 10.744L3.29064 12.97C2.67064 14.046 3.05064 15.468 4.15464 16.11C5.79264 17.058 6.81464 18.826 6.81464 20.722C6.81464 22.618 5.79264 24.384 4.15064 25.334C3.05264 25.97 2.67264 27.384 3.30864 28.484L4.57064 30.66C4.88264 31.222 5.39264 31.628 5.98264 31.794C6.57064 31.958 7.21864 31.888 7.75864 31.588C8.55264 31.122 9.47664 30.88 10.4046 30.88C10.8626 30.88 11.3206 30.938 11.7686 31.058C13.1206 31.422 14.2946 32.326 14.9906 33.54C15.4426 34.302 15.6926 35.192 15.7006 36.1C15.7006 37.4 16.7446 38.442 18.0286 38.442H20.5346C21.8126 38.442 22.8566 37.406 22.8626 36.128C22.8546 34.716 23.4066 33.374 24.4166 32.364C25.4126 31.368 26.8046 30.77 28.1966 30.81C29.1086 30.832 29.9866 31.078 30.7606 31.518C31.8746 32.156 33.2966 31.776 33.9406 30.676L35.2686 28.462C35.5646 27.952 35.6506 27.312 35.4926 26.722C35.3366 26.132 34.9446 25.62 34.4166 25.318C33.1806 24.606 32.2986 23.458 31.9326 22.082C31.5706 20.732 31.7686 19.258 32.4746 18.044C32.9346 17.244 33.6086 16.57 34.4166 16.106C35.5006 15.472 35.8806 14.054 35.2506 12.95C35.2246 12.906 35.2006 12.86 35.1806 12.812L34.0086 10.78C33.3706 9.67 31.9506 9.288 30.8366 9.922C29.6326 10.634 28.2006 10.838 26.8246 10.476C25.4506 10.12 24.2986 9.25 23.5806 8.022C23.1206 7.254 22.8706 6.36 22.8626 5.45C22.8806 4.766 22.6406 4.152 22.2046 3.702C21.7706 3.254 21.1606 3 20.5346 3ZM19.2904 13.9482C23.0244 13.9482 26.0624 16.9882 26.0624 20.7222C26.0624 24.4562 23.0244 27.4922 19.2904 27.4922C15.5564 27.4922 12.5184 24.4562 12.5184 20.7222C12.5184 16.9882 15.5564 13.9482 19.2904 13.9482ZM19.2904 16.9482C17.2104 16.9482 15.5184 18.6422 15.5184 20.7222C15.5184 22.8022 17.2104 24.4922 19.2904 24.4922C21.3704 24.4922 23.0624 22.8022 23.0624 20.7222C23.0624 18.6422 21.3704 16.9482 19.2904 16.9482Z" fill="black"/>
</svg>
