<svg width="29" height="29" viewBox="0 0 29 29" fill="none" xmlns="http://www.w3.org/2000/svg">
<path d="M27.4046 1.59524C26.341 0.531812 25.0606 0 23.5625 0H5.43748C3.93978 0 2.65893 0.531812 1.59524 1.59524C0.531812 2.65886 0 3.93972 0 5.43748V23.5627C0 25.0605 0.531812 26.3413 1.59524 27.4047C2.65886 28.4683 3.93978 29.0001 5.43748 29.0001H9.66664C9.94333 29.0001 10.1512 28.9906 10.2896 28.9721C10.4279 28.953 10.5663 28.8712 10.7048 28.7263C10.8434 28.5817 10.9125 28.3708 10.9125 28.094C10.9125 28.0564 10.9091 27.628 10.9029 26.8099C10.8965 25.9916 10.8934 25.3434 10.8934 24.8651L10.4591 24.9407C10.1823 24.9909 9.83296 25.0131 9.41125 25.0067C8.98974 25.0004 8.55223 24.9565 8.09918 24.8746C7.64587 24.7927 7.22436 24.6039 6.83413 24.3084C6.4441 24.0123 6.16722 23.6254 6.00355 23.1472L5.81468 22.7127C5.68884 22.4235 5.49071 22.1024 5.22005 21.7502C4.94938 21.3976 4.67567 21.1585 4.39879 21.0326L4.26659 20.9382C4.17858 20.8753 4.09677 20.7994 4.02119 20.7114C3.94573 20.6231 3.88913 20.5349 3.85137 20.4471C3.81361 20.3588 3.84495 20.2864 3.94573 20.2296C4.04652 20.1731 4.22883 20.145 4.49329 20.145L4.87075 20.2016C5.12257 20.2518 5.43391 20.4027 5.80542 20.6546C6.17667 20.9063 6.48186 21.2335 6.72105 21.6362C7.01069 22.1524 7.35966 22.5455 7.76893 22.8161C8.17788 23.0871 8.59019 23.2223 9.00548 23.2223C9.42078 23.2223 9.77946 23.1909 10.0817 23.1282C10.3836 23.0651 10.6668 22.9705 10.9312 22.8446C11.0445 22.0014 11.3529 21.3528 11.8563 20.8998C11.1389 20.8242 10.4939 20.711 9.92098 20.5599C9.34843 20.4087 8.75677 20.1634 8.1464 19.8234C7.53576 19.4835 7.02921 19.0622 6.62642 18.5584C6.22369 18.0546 5.89318 17.3938 5.63534 16.576C5.37737 15.7576 5.24835 14.8135 5.24835 13.7437C5.24835 12.2208 5.74571 10.9242 6.74003 9.85439C6.27421 8.70903 6.31819 7.42532 6.87209 6.00288C7.23712 5.88954 7.77846 5.97458 8.49583 6.25781C9.21333 6.54124 9.73866 6.78361 10.0723 6.98471C10.406 7.18587 10.6734 7.35596 10.8748 7.49456C12.0456 7.16729 13.2539 7.00368 14.4999 7.00368C15.7458 7.00368 16.9543 7.16729 18.1252 7.49456L18.8426 7.04144C19.3337 6.73923 19.9126 6.46235 20.5798 6.21073C21.2469 5.95904 21.7565 5.88974 22.1091 6.00308C22.6753 7.42552 22.726 8.70922 22.2598 9.85452C23.2542 10.9244 23.7516 12.221 23.7516 13.7439C23.7516 14.8139 23.6226 15.7612 23.3647 16.5854C23.1069 17.4099 22.7735 18.0709 22.3641 18.568C21.9552 19.0653 21.4453 19.4835 20.835 19.8236C20.2244 20.1633 19.6329 20.409 19.06 20.5597C18.4873 20.7109 17.8423 20.8245 17.1249 20.9001C17.779 21.4663 18.1062 22.3597 18.1062 23.5808V28.0934C18.1062 28.3074 18.1374 28.4804 18.2004 28.6125C18.2637 28.7447 18.3642 28.8357 18.5026 28.8864C18.6416 28.9366 18.7638 28.9681 18.871 28.9806C18.9783 28.9932 19.1322 28.9995 19.3336 28.9995H23.5628C25.0605 28.9995 26.3414 28.4677 27.4046 27.4041C28.4682 26.3405 29 25.0596 29 23.5619V5.43748C28.9999 3.93972 28.4681 2.65866 27.4046 1.59524Z" fill="#F9EFE6"/>
</svg>
